<?xml version="1.0" standalone="no"?><svg xmlns="http://www.w3.org/2000/svg" viewBox="0 0 1440 320"><path fill="#A020F0" fill-opacity="100.5" d="M0,192L6.9,170.7C13.7,149,27,107,41,117.3C54.9,128,69,192,82,208C96,224,110,192,123,160C137.1,128,151,96,165,85.3C178.3,75,192,85,206,112C219.4,139,233,181,247,218.7C260.6,256,274,288,288,272C301.7,256,315,192,329,160C342.9,128,357,128,370,117.3C384,107,398,85,411,85.3C425.1,85,439,107,453,128C466.3,149,480,171,494,186.7C507.4,203,521,213,535,192C548.6,171,562,117,576,117.3C589.7,117,603,171,617,186.7C630.9,203,645,181,658,160C672,139,686,117,699,133.3C713.1,149,727,203,741,197.3C754.3,192,768,128,782,112C795.4,96,809,128,823,128C836.6,128,850,96,864,85.3C877.7,75,891,85,905,112C918.9,139,933,181,946,170.7C960,160,974,96,987,85.3C1001.1,75,1015,117,1029,128C1042.3,139,1056,117,1070,106.7C1083.4,96,1097,96,1111,96C1124.6,96,1138,96,1152,101.3C1165.7,107,1179,117,1193,138.7C1206.9,160,1221,192,1234,181.3C1248,171,1262,117,1275,80C1289.1,43,1303,21,1317,42.7C1330.3,64,1344,128,1358,160C1371.4,192,1385,192,1399,181.3C1412.6,171,1426,149,1433,138.7L1440,128L1440,0L1433.1,0C1426.3,0,1413,0,1399,0C1385.1,0,1371,0,1358,0C1344,0,1330,0,1317,0C1302.9,0,1289,0,1275,0C1261.7,0,1248,0,1234,0C1220.6,0,1207,0,1193,0C1179.4,0,1166,0,1152,0C1138.3,0,1125,0,1111,0C1097.1,0,1083,0,1070,0C1056,0,1042,0,1029,0C1014.9,0,1001,0,987,0C973.7,0,960,0,946,0C932.6,0,919,0,905,0C891.4,0,878,0,864,0C850.3,0,837,0,823,0C809.1,0,795,0,782,0C768,0,754,0,741,0C726.9,0,713,0,699,0C685.7,0,672,0,658,0C644.6,0,631,0,617,0C603.4,0,590,0,576,0C562.3,0,549,0,535,0C521.1,0,507,0,494,0C480,0,466,0,453,0C438.9,0,425,0,411,0C397.7,0,384,0,370,0C356.6,0,343,0,329,0C315.4,0,302,0,288,0C274.3,0,261,0,247,0C233.1,0,219,0,206,0C192,0,178,0,165,0C150.9,0,137,0,123,0C109.7,0,96,0,82,0C68.6,0,55,0,41,0C27.4,0,14,0,7,0L0,0Z"></path></svg>